# Blender v2.79 (sub 0) OBJ File: 'halfquarterblocky-.blend'
# www.blender.org
mtllib halfquarterblockz-.mtl
o Plane
v 0.000000 0.000000 0.000000
v 0.500000 -0.500000 0.500000
v 0.500000 0.000000 0.000000
v 0.500000 -0.500000 0.000000
v 0.500000 0.000000 0.500000
v -0.000000 0.000000 0.500000
v -0.000000 -0.500000 0.500000
v 0.000000 -0.500000 0.000000
vt 0.000100 0.999900
vt 0.999900 0.000100
vt 0.999900 0.999900
vt 0.999900 0.000100
vt 0.000100 0.999900
vt 0.000100 0.000100
vt 0.999900 0.000100
vt 0.000100 0.999900
vt 0.000100 0.000100
vt 0.000100 0.000100
vt 0.999900 0.999900
vt 0.999900 0.000100
vt 0.000100 0.999900
vt 0.000100 0.000100
vt 0.000100 0.999900
vt 0.999900 0.000100
vt 0.999900 0.999900
vt 0.999900 0.999900
vt 0.999900 0.999900
vt 0.000100 0.000100
vn 1.0000 0.0000 0.0000
vn 0.0000 0.0000 -1.0000
vn 0.0000 1.0000 0.0000
vn 0.0000 -1.0000 0.0000
vn -1.0000 0.0000 -0.0000
vn -0.0000 0.0000 1.0000
usemtl Material.001
s off
f 4/1/1 5/2/1 2/3/1
f 8/4/2 3/5/2 4/6/2
f 1/7/3 5/8/3 3/9/3
f 2/10/4 8/11/4 4/1/4
f 7/12/5 1/13/5 8/14/5
f 2/15/6 6/16/6 7/17/6
f 4/1/1 3/9/1 5/2/1
f 8/4/2 1/18/2 3/5/2
f 1/7/3 6/19/3 5/8/3
f 2/10/4 7/12/4 8/11/4
f 7/12/5 6/19/5 1/13/5
f 2/15/6 5/20/6 6/16/6
