# Blender v2.79 (sub 0) OBJ File: 'ironblockstairsz-.blend'
# www.blender.org
mtllib ironblockstairsz-.mtl
o Solid1
v 0.500000 -0.250000 0.500000
v 0.500000 -0.500000 0.500000
v 0.500000 -0.250000 -0.500000
v 0.500000 -0.500000 -0.500000
v -0.500000 0.500000 -0.500000
v -0.500000 -0.500000 -0.500000
v -0.500000 0.500000 0.500000
v -0.500000 -0.500000 0.500000
v 0.250000 -0.250000 -0.500000
v 0.000000 -0.000000 -0.500000
v -0.250000 0.250000 -0.500000
v 0.000000 0.250000 -0.500000
v -0.250000 0.500000 -0.500000
v 0.250000 -0.000000 -0.500000
v 0.250000 -0.250000 0.500000
v -0.000000 0.000000 0.500000
v -0.250000 0.250000 0.500000
v -0.000000 0.250000 0.500000
v 0.250000 0.000000 0.500000
v -0.250000 0.500000 0.500000
vt 0.568346 0.000100
vt 0.994570 0.000100
vt 0.568347 0.999900
vt 0.994571 0.999900
vt 0.999900 0.999900
vt 0.000100 0.999900
vt 0.999900 0.000100
vt 0.000100 0.000100
vt 0.999900 0.999900
vt 0.000100 0.999900
vt 0.999900 0.000100
vt 0.000100 0.000100
vt 0.000000 0.250000
vt 0.000000 0.000000
vt 0.250000 0.250000
vt 1.000000 0.000000
vt 0.500000 0.500000
vt 0.750000 0.750000
vt 0.500000 0.750000
vt 1.000000 1.000000
vt 0.750000 1.000000
vt 0.250000 0.500000
vt 1.000000 0.250000
vt 0.750000 0.250000
vt 1.000000 0.000000
vt 0.000000 0.000000
vt 0.500000 0.500000
vt 0.250000 0.750000
vt 0.500000 0.750000
vt 0.750000 0.500000
vt 0.250000 1.000000
vt 0.000000 1.000000
vt 0.375000 0.999900
vt 0.000075 0.999900
vt 0.375000 0.000100
vt 0.000075 0.000100
vt 0.629250 0.849406
vt 0.370725 0.849406
vt 0.629249 0.150594
vt 0.370725 0.150594
vt 0.607150 0.854066
vt 0.392875 0.854066
vt 0.607150 0.145934
vt 0.392875 0.145934
vt 0.643316 0.849920
vt 0.356659 0.849920
vt 0.643315 0.150080
vt 0.356658 0.150080
vt 0.621042 0.852316
vt 0.378983 0.852316
vt 0.621041 0.147685
vt 0.378983 0.147685
vt 0.622681 0.853468
vt 0.377393 0.853468
vt 0.622681 0.146533
vt 0.377393 0.146533
vt 0.625571 0.849190
vt 0.374353 0.849190
vt 0.625571 0.150810
vt 0.374353 0.150810
vn 1.0000 0.0000 0.0000
vn -1.0000 0.0000 -0.0000
vn -0.0000 -1.0000 0.0000
vn 0.0000 -0.0000 -1.0000
vn -0.0000 0.0000 1.0000
vn 0.0000 1.0000 -0.0000
usemtl 191,191,191
s 1
f 1/1/1 2/2/1 3/3/1
f 3/3/1 2/2/1 4/4/1
f 5/5/2 6/6/2 7/7/2
f 7/7/2 6/6/2 8/8/2
f 6/9/3 4/10/3 8/11/3
f 8/11/3 4/10/3 2/12/3
f 3/13/4 4/14/4 9/15/4
f 9/15/4 4/14/4 6/16/4
f 9/15/4 6/16/4 10/17/4
f 10/17/4 6/16/4 11/18/4
f 10/17/4 11/18/4 12/19/4
f 6/16/4 5/20/4 11/18/4
f 11/18/4 5/20/4 13/21/4
f 10/17/4 14/22/4 9/15/4
f 1/23/5 15/24/5 2/25/5
f 2/25/5 15/24/5 8/26/5
f 8/26/5 15/24/5 16/27/5
f 8/26/5 16/27/5 17/28/5
f 17/28/5 16/27/5 18/29/5
f 15/24/5 19/30/5 16/27/5
f 20/31/5 7/32/5 17/28/5
f 17/28/5 7/32/5 8/26/5
f 13/33/6 5/34/6 20/35/6
f 20/35/6 5/34/6 7/36/6
f 12/37/6 11/38/6 18/39/6
f 18/39/6 11/38/6 17/40/6
f 11/41/1 13/42/1 17/43/1
f 17/43/1 13/42/1 20/44/1
f 3/45/6 9/46/6 1/47/6
f 1/47/6 9/46/6 15/48/6
f 9/49/1 14/50/1 15/51/1
f 15/51/1 14/50/1 19/52/1
f 14/53/6 10/54/6 19/55/6
f 19/55/6 10/54/6 16/56/6
f 10/57/1 12/58/1 16/59/1
f 16/59/1 12/58/1 18/60/1
