# WaveFront *.obj file (generated by Autodesk ATF)

mtllib QUATERRBLOCKX-.mtl

g Solid1

v -0.500000 -0.500000 -0.500000
v -0.500000 -0.500000 0.500000
v -0.500000 0.000000 -0.500000
v -0.500000 0.000000 0.500000
v 0.000000 -0.500000 -0.500000
v 0.000000 -0.500000 0.500000
v 0.000000 0.000000 -0.500000
v 0.000000 0.000000 0.500000
vt 0.000000 0.000000 0.000000
vt -1.270000 0.000000 0.000000
vt -1.270000 -1.270000 0.000000
vt 0.000000 -1.270000 0.000000
vt -0.000000 2.540000 0.000000
vt -0.000000 0.000000 0.000000
vt 1.270000 0.000000 0.000000
vt 1.270000 2.540000 0.000000
vt 1.270000 1.270000 0.000000
vt 1.270000 -1.270000 0.000000
vt 2.540000 -1.270000 0.000000
vt 2.540000 1.270000 0.000000
vt 1.270000 0.000000 0.000000
vt 0.000000 0.000000 0.000000
vt 0.000000 -1.270000 0.000000
vt 1.270000 -1.270000 0.000000
vt 1.270000 -1.270000 0.000000
vt 1.270000 1.270000 0.000000
vt 0.000000 1.270000 0.000000
vt 0.000000 -1.270000 0.000000
vt -1.270000 0.635000 0.000000
vt -1.270000 -0.635000 0.000000
vt 1.270000 -0.635000 0.000000
vt 1.270000 0.635000 0.000000
vn 0.000000 0.000000 2.540000
vn 0.000000 0.000000 2.540000
vn 0.000000 0.000000 2.540000
vn 0.000000 0.000000 2.540000
vn 2.540000 0.000000 0.000000
vn 2.540000 0.000000 0.000000
vn 2.540000 0.000000 0.000000
vn 2.540000 0.000000 0.000000
vn -2.540000 0.000000 0.000000
vn -2.540000 0.000000 0.000000
vn -2.540000 0.000000 0.000000
vn -2.540000 0.000000 0.000000
vn 0.000000 0.000000 -2.540000
vn 0.000000 0.000000 -2.540000
vn 0.000000 0.000000 -2.540000
vn 0.000000 0.000000 -2.540000
vn 0.000000 -2.540000 0.000000
vn 0.000000 -2.540000 0.000000
vn 0.000000 -2.540000 0.000000
vn 0.000000 -2.540000 0.000000
vn 0.000000 2.540000 0.000000
vn 0.000000 2.540000 0.000000
vn 0.000000 2.540000 0.000000
vn 0.000000 2.540000 0.000000
usemtl 191,191,191
f 8/1/1 4/2/2 6/4/4
f 6/4/4 4/2/2 2/3/3
f 8/6/6 6/7/7 7/5/5
f 7/5/5 6/7/7 5/8/8
f 3/10/10 1/11/11 4/9/9
f 4/9/9 1/11/11 2/12/12
f 3/13/13 7/14/14 1/16/16
f 1/16/16 7/14/14 5/15/15
f 6/18/18 2/19/19 5/17/17
f 5/17/17 2/19/19 1/20/20
f 3/22/22 4/23/23 7/21/21
f 7/21/21 4/23/23 8/24/24

# 8 vertices
# 24 texture params
# 24 normals
# 12 facets

# 1 groups
