# Blender v2.79 (sub 0) OBJ File: 'slabdown.blend'
# www.blender.org
mtllib slabdown.mtl
o Solid1
v 0.500000 0.000000 -0.500000
v 0.500000 -0.000000 0.500000
v 0.500000 -0.500000 -0.500000
v 0.500000 -0.500000 0.500000
v -0.500000 0.000000 -0.500000
v -0.500000 -0.500000 -0.500000
v -0.500000 -0.000000 0.500000
v -0.500000 -0.500000 0.500000
vt 0.500000 0.000071
vt 0.500000 0.999929
vt 0.000071 0.000071
vt 0.000071 0.999929
vt 0.000071 0.000071
vt 0.999929 0.000071
vt 0.000071 0.500000
vt 0.999929 0.500000
vt 0.000071 0.999929
vt 0.500000 0.999929
vt 0.500000 0.000071
vt 0.999929 0.500000
vt 0.000071 0.500000
vt 0.999929 0.000071
vt 0.000071 0.000071
vt 0.999900 0.000100
vt 0.999900 0.999900
vt 0.000100 0.000100
vt 0.000100 0.999900
vt 0.000100 0.999900
vt 0.000100 0.000100
vt 0.999900 0.999900
vt 0.999900 0.000100
vn 1.0000 0.0000 0.0000
vn 0.0000 0.0000 -1.0000
vn -1.0000 0.0000 0.0000
vn 0.0000 -0.0000 1.0000
vn 0.0000 1.0000 0.0000
vn 0.0000 -1.0000 -0.0000
usemtl 191,191,191
s 1
f 1/1/1 2/2/1 3/3/1
f 3/3/1 2/2/1 4/4/1
f 5/5/2 1/6/2 6/7/2
f 6/7/2 1/6/2 3/8/2
f 7/9/3 5/5/3 8/10/3
f 8/10/3 5/5/3 6/11/3
f 2/12/4 7/13/4 4/14/4
f 4/14/4 7/13/4 8/15/4
f 2/16/5 1/17/5 7/18/5
f 7/18/5 1/17/5 5/19/5
f 8/20/6 6/21/6 4/22/6
f 4/22/6 6/21/6 3/23/6
