# Blender v2.79 (sub 0) OBJ File: 'stairsz+.blend'
# www.blender.org
mtllib StairsZ+.mtl
o Solid1
v 0.500000 -0.250000 -0.500000
v 0.500000 -0.500000 -0.500000
v -0.500000 -0.250000 -0.500000
v -0.500000 -0.500000 -0.500000
v -0.500000 0.500000 0.500000
v -0.500000 -0.500000 0.500000
v 0.500000 0.500000 0.500000
v 0.500000 -0.500000 0.500000
v -0.500000 -0.250000 -0.250000
v -0.500000 -0.000000 -0.000000
v -0.500000 0.250000 0.250000
v -0.500000 0.250000 -0.000000
v -0.500000 0.500000 0.250000
v -0.500000 -0.000000 -0.250000
v 0.500000 -0.250000 -0.250000
v 0.500000 0.000000 0.000000
v 0.500000 0.250000 0.250000
v 0.500000 0.250000 0.000000
v 0.500000 0.000000 -0.250000
v 0.500000 0.500000 0.250000
vt 0.749949 0.000100
vt 0.999899 0.000100
vt 0.749950 0.999900
vt 0.999899 0.999900
vt 0.999900 0.999900
vt 0.000100 0.999900
vt 0.999900 0.000100
vt 0.000100 0.000100
vt 0.999900 0.999900
vt 0.000100 0.999900
vt 0.999900 0.000100
vt 0.000100 0.000100
vt -0.500000 -0.000000
vt -0.500000 -0.500000
vt -0.000000 -0.000000
vt 1.500000 -0.500000
vt 0.500000 0.500000
vt 1.000000 1.000000
vt 0.500000 1.000000
vt 1.500000 1.500000
vt 1.000000 1.500000
vt -0.000000 0.500000
vt 1.500000 0.000000
vt 1.000000 0.000000
vt 1.500000 -0.500000
vt -0.500000 -0.500000
vt 0.500000 0.500000
vt 0.000000 1.000000
vt 0.500000 1.000000
vt 1.000000 0.500000
vt 0.000000 1.500000
vt -0.500000 1.500000
vt 0.250050 0.999900
vt 0.000100 0.999900
vt 0.250050 0.000100
vt 0.000100 0.000100
vt 0.749950 0.999900
vt 0.500000 0.999900
vt 0.749950 0.000100
vt 0.500000 0.000100
vt 0.500000 0.999900
vt 0.499999 0.000100
vt 0.250050 0.999900
vt 0.250050 0.000100
vt 0.000100 0.999900
vt 0.000100 0.000100
vt 0.999900 0.999900
vt 0.999899 0.000100
vn 0.0000 0.0000 -1.0000
vn -0.0000 -0.0000 1.0000
vn 0.0000 -1.0000 0.0000
vn -1.0000 -0.0000 -0.0000
vn 1.0000 0.0000 0.0000
vn -0.0000 1.0000 0.0000
usemtl 191,191,191
s 1
f 1/1/1 2/2/1 3/3/1
f 3/3/1 2/2/1 4/4/1
f 5/5/2 6/6/2 7/7/2
f 7/7/2 6/6/2 8/8/2
f 6/9/3 4/10/3 8/11/3
f 8/11/3 4/10/3 2/12/3
f 3/13/4 4/14/4 9/15/4
f 9/15/4 4/14/4 6/16/4
f 9/15/4 6/16/4 10/17/4
f 10/17/4 6/16/4 11/18/4
f 10/17/4 11/18/4 12/19/4
f 6/16/4 5/20/4 11/18/4
f 11/18/4 5/20/4 13/21/4
f 10/17/4 14/22/4 9/15/4
f 1/23/5 15/24/5 2/25/5
f 2/25/5 15/24/5 8/26/5
f 8/26/5 15/24/5 16/27/5
f 8/26/5 16/27/5 17/28/5
f 17/28/5 16/27/5 18/29/5
f 15/24/5 19/30/5 16/27/5
f 20/31/5 7/32/5 17/28/5
f 17/28/5 7/32/5 8/26/5
f 13/33/6 5/34/6 20/35/6
f 20/35/6 5/34/6 7/36/6
f 12/37/6 11/38/6 18/39/6
f 18/39/6 11/38/6 17/40/6
f 11/38/1 13/33/1 17/40/1
f 17/40/1 13/33/1 20/35/1
f 3/3/6 9/41/6 1/1/6
f 1/1/6 9/41/6 15/42/6
f 9/41/1 14/43/1 15/42/1
f 15/42/1 14/43/1 19/44/1
f 14/43/6 10/45/6 19/44/6
f 19/44/6 10/45/6 16/46/6
f 10/47/1 12/37/1 16/48/1
f 16/48/1 12/37/1 18/39/1
